<svg width="164" height="163" viewBox="0 0 164 163" fill="none" xmlns="http://www.w3.org/2000/svg">
  <path d="M13.9452 41.0491L83.1972 0.727539L152.449 41.0491L83.1972 82.1319L13.9452 41.0491Z"
    fill="#F39F47" />
  <path fill-rule="evenodd" clip-rule="evenodd"
    d="M75.8415 24.8291C78.9222 24.8291 81.4197 26.0935 81.4197 27.6531V41.5446L98.3799 50.131C100.558 51.2339 100.558 53.0217 98.3799 54.1246C96.2014 55.2274 92.67 55.2274 90.4915 54.1246L71.8972 44.7112C70.8508 44.1818 70.2632 43.4634 70.2632 42.7145V27.6531C70.2632 26.0935 72.7608 24.8291 75.8415 24.8291Z"
    fill="#23252E" />
  <path fill-rule="evenodd" clip-rule="evenodd"
    d="M14.5104 1.34375C14.7342 1.34375 14.9156 1.43559 14.9156 1.54888V2.55794L16.1476 3.18165C16.3058 3.26176 16.3058 3.39163 16.1476 3.47174C15.9893 3.55185 15.7328 3.55185 15.5746 3.47174L14.2239 2.78796C14.1479 2.74951 14.1052 2.69732 14.1052 2.64292V1.54888C14.1052 1.43559 14.2866 1.34375 14.5104 1.34375Z"
    fill="#2A2E39" />
  <path d="M85.1387 81.3053L149.536 44.2207L152.126 118.973L85.1387 159.424V81.3053Z" fill="#23252E" />
  <path
    d="M150.507 41.9556L150.313 121.174L83.1325 160.136L82.8086 82.2763L150.507 41.9556ZM94.006 88.7485L94.1993 140.784L116.528 127.775L116.464 88.5545L127.725 81.8878V121.238L138.987 114.637L139.052 61.9542L94.0054 88.7491L94.006 88.7485Z"
    fill="white" />
  <path d="M13.9453 42.7319L14.1399 121.951L81.32 160.912L81.6439 83.0527L13.9453 42.7319Z"
    fill="#D1D1D1" />
  <path
    d="M87.5986 1.31061C84.4915 -0.436868 79.5076 -0.436868 76.4012 1.31061L15.0459 36.5837C11.9389 38.3312 9.47986 42.7323 9.47986 46.2272V116.773C9.47986 120.332 12.0038 124.669 15.0459 126.417L76.4012 161.69C79.5076 163.437 84.4915 163.437 87.5986 161.69L148.953 126.417C152.06 124.67 154.52 120.268 154.52 116.773V46.2272C154.52 42.6674 151.996 38.3312 148.954 36.5837L87.5986 1.31061ZM142.029 38.2015C145.136 39.9489 145.136 42.8615 142.029 44.6089L88.3098 75.4812C85.2034 77.2287 80.2201 77.2287 77.1136 75.4812L22.6178 44.1561C19.5107 42.4086 19.5107 39.4961 22.6178 37.7487L76.3359 6.87667C79.443 5.12922 84.4262 5.12922 87.5333 6.87667L142.028 38.2015H142.029ZM14.2689 51.34C14.2689 47.7808 16.7934 46.3569 19.835 48.1038L74.7837 79.688C77.8894 81.4355 80.3494 85.8369 80.3494 89.3312V151.982C80.3494 155.542 77.8255 156.965 74.7837 155.218L19.835 123.633C16.7286 121.886 14.2689 117.485 14.2689 113.99V51.34ZM90.8344 154.247C87.7273 155.994 85.2686 154.571 85.2686 151.011V89.3312C85.2686 85.7716 87.7926 81.4355 90.8337 79.688L144.164 49.0749C147.272 47.3274 149.73 48.7512 149.73 52.3109V113.99C149.73 117.55 147.206 121.886 144.164 123.633L90.8344 154.247Z"
    fill="#23252E" />
</svg>
