<svg width="163" height="163" viewBox="0 0 163 163" fill="none" xmlns="http://www.w3.org/2000/svg">
	<path
		d="M142.138 30.6256L90.2643 2.662C84.8039 -0.31637 78.1853 -0.31637 72.725 2.662L20.8516 30.6256C17.0459 32.6939 14.7294 36.6651 14.7294 41.2154C14.7294 45.6829 17.0459 49.7368 20.8516 51.8051L72.725 79.7685C75.4552 81.2577 78.5163 82.0023 81.4946 82.0023C84.473 82.0023 87.5341 81.2577 90.2643 79.7685L142.138 51.8051C145.943 49.7368 148.26 45.7657 148.26 41.2154C148.26 36.6651 145.943 32.6939 142.138 30.6256Z"
		fill="#F39F47" />
	<path
		d="M65.447 86.9659L17.1311 62.808C13.4082 60.9879 9.10608 61.1533 5.63131 63.3044C2.07381 65.5381 0.00549316 69.2611 0.00549316 73.3977V118.983C0.00549316 126.843 4.39032 133.958 11.4226 137.515L59.6557 161.673C61.3103 162.501 63.1304 162.914 64.9506 162.914C67.1016 162.914 69.2527 162.335 71.1555 161.177C74.713 159.026 76.7813 155.22 76.7813 151.084V105.498C76.8641 97.5556 72.4792 90.4406 65.447 86.9659Z"
		fill="#F4F4F4" />
	<path
		d="M157.369 63.3042C153.811 61.1531 149.509 60.9049 145.869 62.8078L97.6357 86.9657C90.6035 90.5232 86.2186 97.5554 86.2186 105.498V151.083C86.2186 155.22 88.2869 159.026 91.8444 161.177C93.7473 162.335 95.8983 162.914 98.0494 162.914C99.8695 162.914 101.69 162.501 103.344 161.673L151.577 137.515C158.61 133.958 162.994 126.926 162.994 118.983V73.3975C162.994 69.2609 160.926 65.5379 157.369 63.3042Z"
		fill="#D1D1D1" />
	<path fill-rule="evenodd" clip-rule="evenodd"
		d="M77.0306 21.3208C80.4574 21.3208 83.2356 22.7272 83.2356 24.4621V39.9141L102.101 49.4652C104.524 50.6919 104.524 52.6805 102.101 53.9073C99.6778 55.1341 95.7497 55.1341 93.3265 53.9073L72.6433 43.4365C71.4793 42.8476 70.8257 42.0485 70.8257 41.2154V24.4621C70.8257 22.7272 73.6038 21.3208 77.0306 21.3208Z"
		fill="#2A2E39" />
</svg>
